# xmcd
# Copyright (C) 1995-1998 Ti Kan
#
# Track frame offsets:
#       150
#       15393
#       31906
#       45217
#       60644
#       81432
#       96213
#       115643
#       128764
#       145079
#       159370
#
# Disc length: 2380 seconds
#
# Revision: 0
# Processed by: cddbd v1.5.1PL0 Copyright (c) Steve Scherf et al.
# Submitted via: CD-Transfer v1.0
#
DISCID=7b094a0b
DTITLE=Nova Heather - Storm
DYEAR=1900
DGENRE=
TTITLE0=Lets Not Talk About Love
TTITLE1=You Left Me A Song
TTITLE2=Drink It La
TTITLE3=River Of Live
TTITLE4=One Day In June
TTITLE5=Storm
TTITLE6=I Wanna Be Your Light
TTITLE7=Aquamariac
TTITLE8=All I Need
TTITLE9=Everything
TTITLE10=Fool For You
EXTD=
EXTT0=
EXTT1=
EXTT2=
EXTT3=
EXTT4=
EXTT5=
EXTT6=
EXTT7=
EXTT8=
EXTT9=
EXTT10=
PLAYORDER=
